<?xml version="1.0" encoding="utf-8"?>
<!-- Generator: Adobe Illustrator 15.0.2, SVG Export Plug-In . SVG Version: 6.00 Build 0)  -->
<!DOCTYPE svg PUBLIC "-//W3C//DTD SVG 1.1//EN" "http://www.w3.org/Graphics/SVG/1.1/DTD/svg11.dtd">
<svg version="1.1" xmlns="http://www.w3.org/2000/svg" xmlns:xlink="http://www.w3.org/1999/xlink" x="0px" y="0px" width="100px"
	 height="32px" viewBox="0 0 100 32" enable-background="new 0 0 100 32" xml:space="preserve">

<g id="svg">
	<g>
		<polygon fill="#009A3F" stroke="#1D1D1B" stroke-width="0.25" stroke-miterlimit="10" points="17.509,8.472 13.555,12.425 
			9.602,8.472 8.19,9.884 13.555,15.25 18.92,9.884 		"/>
		<polygon fill="#009A3F" stroke="#1D1D1B" stroke-width="0.25" stroke-miterlimit="10" points="21.18,12.143 13.555,19.768 
			5.931,12.143 4.519,13.555 13.555,22.592 22.592,13.555 		"/>
	</g>
	<g>
		<polygon fill="#1E8DCE" stroke="#000000" stroke-width="0.25" stroke-miterlimit="10" points="36.88,3.785 27.107,13.558 
			27.107,13.558 27.11,13.555 13.555,0 0,13.555 2.259,15.815 13.555,4.519 24.851,15.814 13.555,27.11 2.259,15.815 0,18.074 
			13.555,31.629 27.11,18.074 27.107,18.069 27.107,18.069 36.88,27.844 41.392,27.844 29.363,15.814 41.392,3.785 		"/>
		<polygon fill="#1E8DCE" stroke="#000000" stroke-width="0.25" stroke-miterlimit="10" points="44.399,27.844 47.406,27.844 
			47.406,6.792 66.953,6.792 66.953,24.836 50.413,24.836 50.413,27.844 69.96,27.844 69.96,3.785 44.399,3.785 		"/>
		
			<rect x="84.997" y="9.8" fill="#1E8DCE" stroke="#000000" stroke-width="0.25" stroke-miterlimit="10" width="3.007" height="15.037"/>
		<polygon fill="#1E8DCE" stroke="#000000" stroke-width="0.25" stroke-miterlimit="10" points="72.967,3.785 72.967,27.844 
			75.975,27.844 75.975,6.792 97.025,6.792 97.025,27.844 100.033,27.844 100.033,3.785 		"/>
	</g>
</g>

</svg>
